<svg xmlns="http://www.w3.org/2000/svg" xmlns:xlink="http://www.w3.org/1999/xlink" width="2000" zoomAndPan="magnify" viewBox="0 0 1500 1499.999933" height="2000" preserveAspectRatio="xMidYMid meet" version="1.0"><defs><g/><clipPath id="7eba7ad1f5"><path d="M 63 403 L 466 403 L 466 1027.535156 L 63 1027.535156 Z M 63 403 " clip-rule="nonzero"/></clipPath><clipPath id="a3ad377898"><path d="M 0.960938 0.71875 L 1054.320312 0.71875 L 1054.320312 632.398438 L 0.960938 632.398438 Z M 0.960938 0.71875 " clip-rule="nonzero"/></clipPath><clipPath id="290d721eee"><rect x="0" width="1055" y="0" height="633"/></clipPath><clipPath id="4ec292e614"><rect x="0" width="1055" y="0" height="633"/></clipPath></defs><g clip-path="url(#7eba7ad1f5)"><path fill="#000000" d="M 102.441406 851.25 C 102.320312 851.199219 102.203125 851.136719 102.074219 851.054688 C 87.089844 841.804688 78.195312 828.976562 69.109375 812.890625 C 68.722656 812.207031 68.390625 812.082031 68.96875 813.605469 C 69.546875 815.132812 73.621094 825.304688 75.902344 830.027344 C 83.902344 846.605469 94.730469 860.191406 108.386719 870.777344 C 111.839844 873.460938 111.597656 873.867188 107.640625 871.996094 C 103.863281 870.222656 100.363281 868.167969 97.128906 865.835938 C 89.332031 860.230469 82.101562 853.972656 75.457031 847.082031 C 74.613281 846.210938 73.488281 845.179688 72.574219 844.347656 C 71.757812 843.597656 72.121094 844.441406 72.382812 844.949219 C 74.175781 848.40625 76.820312 851.550781 79.042969 854.734375 C 82.761719 860.0625 87.308594 864.855469 92.695312 868.523438 C 94.679688 869.875 94.40625 870.503906 92.105469 869.816406 C 83.628906 867.285156 75.617188 863.75 68.074219 859.199219 C 62.726562 855.960938 61.597656 855.675781 68.238281 861.214844 C 75.878906 867.578125 84.234375 873.066406 93.054688 877.648438 C 98.679688 880.570312 104.324219 883.4375 110 886.25 C 111.300781 886.894531 112.589844 887.582031 113.84375 888.320312 C 121.492188 892.824219 121.421875 893.226562 113.625 889.527344 C 110.179688 887.890625 106.453125 886.359375 102.4375 884.933594 C 98.707031 883.605469 93.628906 882.230469 90.128906 881.4375 C 83.816406 880.007812 84.925781 880.664062 91.199219 883.414062 C 97.84375 886.328125 103.589844 889.675781 108.730469 894.292969 C 114.773438 899.71875 121.585938 904.714844 122.984375 913.300781 C 123.503906 916.480469 123.6875 919.695312 123.84375 922.910156 C 125.445312 955.234375 137.878906 986.097656 153.527344 1014.070312 C 155.824219 1018.175781 159.449219 1024.054688 164.085938 1026.789062 C 165.347656 1027.535156 166.789062 1027.332031 166.964844 1024.960938 C 167.265625 1020.960938 165.546875 1016.050781 161.492188 1005.507812 C 158.734375 998.335938 156.117188 991.109375 153.730469 983.8125 C 148.5625 968.011719 144.449219 951.820312 142.238281 935.324219 C 140.808594 924.625 137.265625 908.507812 149.90625 903.144531 C 157.785156 899.804688 164.359375 898.722656 174.433594 900.6875 C 181.285156 902.023438 189.492188 906.058594 193.609375 913.777344 C 194.449219 915.347656 194.675781 914.949219 194.65625 913.636719 C 194.328125 891.328125 167.652344 887.628906 152.582031 888.589844 C 147.945312 888.882812 150.71875 888.308594 152.109375 887.964844 C 162.304688 885.445312 172.257812 885.714844 183.390625 885.792969 C 194.265625 885.867188 203.824219 883.324219 212.054688 878.15625 C 214.269531 876.761719 214.089844 876.320312 211.53125 876.832031 C 207.316406 877.671875 203.335938 877.925781 199.574219 877.578125 C 194.308594 877.089844 186.808594 874.367188 176.5 873.734375 C 168.734375 873.257812 163.351562 873.6875 160.335938 874.070312 C 157.320312 874.453125 157.933594 874.109375 159.976562 873.652344 C 162.019531 873.195312 171.328125 871.816406 177.003906 871.722656 C 192.367188 871.460938 206.109375 866.683594 218.234375 857.40625 C 218.304688 857.351562 218.351562 857.273438 218.375 857.1875 C 218.417969 856.984375 218.335938 856.929688 218.113281 857.027344 C 208.207031 861.449219 197.785156 864.207031 186.867188 865.316406 C 171.09375 866.917969 163.285156 864.402344 142.210938 877.425781 C 140.472656 878.5 140.007812 878.40625 140.964844 877.203125 C 153.902344 864.117188 174.277344 862.632812 192.046875 856.425781 C 214.621094 848.539062 245.003906 820.597656 246.300781 819.042969 C 247.59375 817.488281 247.859375 816.796875 246.058594 818.015625 C 234.140625 826.070312 203.785156 839.601562 180.335938 845.644531 C 179.960938 845.742188 179.960938 845.695312 180.316406 845.546875 C 200.164062 837.261719 218.304688 825.285156 236.828125 812.511719 C 241.859375 809.042969 237.632812 809.90625 237.039062 809.957031 C 230.503906 810.503906 215.265625 812.484375 197.3125 820.066406 C 194.28125 821.347656 184.921875 825.699219 182.152344 827.457031 C 174.316406 832.441406 172.546875 832.097656 179.757812 826.304688 C 186.625 820.78125 194.9375 814.996094 201.246094 810.796875 C 215.5625 801.257812 229.160156 795.742188 244.75 788.6875 C 245.726562 788.242188 251.726562 784.886719 253.808594 783.578125 C 255.886719 782.269531 255.4375 782.269531 253.910156 782.875 C 252.378906 783.480469 229.003906 789.597656 226.863281 790.050781 C 224.722656 790.507812 225.695312 789.800781 226.34375 789.523438 C 245.710938 781.136719 264.910156 772.59375 276.695312 759.035156 C 277.738281 757.835938 276.933594 758.1875 276.472656 758.460938 C 261.257812 767.417969 231.214844 776.875 227.882812 777.640625 C 224.546875 778.40625 223.507812 778.253906 227.484375 776.882812 C 231.0625 775.644531 250.535156 766.660156 259.648438 758.089844 C 263.230469 754.710938 262.933594 754.339844 258.773438 756.949219 C 248.128906 763.621094 237.1875 768.5 225.945312 771.585938 C 209.175781 776.1875 183.378906 788.9375 182.195312 789.652344 C 179.316406 791.394531 180.207031 790.476562 181.820312 788.875 C 188.9375 781.8125 208.136719 772.933594 225.367188 766.960938 C 238.59375 762.367188 252.769531 754.75 263.621094 745.523438 C 269.019531 740.929688 273.996094 735.902344 278.546875 730.4375 C 281.285156 727.148438 280.953125 726.808594 277.558594 729.398438 C 276.78125 729.996094 275.996094 730.582031 275.21875 731.183594 C 266.460938 737.828125 256.164062 741.96875 245.363281 744.652344 C 224.800781 749.75 205.203125 757.496094 187.589844 769.851562 C 185.136719 771.570312 184.957031 770.960938 186.816406 769.378906 C 188.675781 767.800781 210.070312 751.464844 223.660156 746.082031 C 228.820312 744.039062 234 742.058594 239.207031 740.144531 C 243.9375 738.410156 248.691406 736.734375 253.449219 735.066406 C 254.859375 734.792969 256.3125 734.074219 257.667969 733.601562 C 259.105469 733.101562 265.050781 730.890625 265.636719 730.667969 C 266.855469 730.195312 270.921875 728.308594 272.179688 727.546875 C 273.433594 726.792969 263.882812 730.628906 260.792969 731.4375 C 257.738281 732.238281 254.648438 732.898438 251.601562 733.710938 C 245.796875 735.261719 240.039062 736.980469 234.332031 738.855469 C 229.449219 740.464844 224.601562 742.183594 219.796875 744.007812 C 215.988281 745.453125 212.203125 746.964844 208.441406 748.523438 C 205.859375 749.59375 203.289062 750.699219 200.707031 751.773438 C 199.570312 752.246094 198.285156 752.960938 197.046875 753.117188 C 194.128906 753.480469 229.230469 735.414062 229.230469 735.414062 C 236.554688 731.003906 273.832031 725.402344 291.949219 709.8125 C 292.003906 709.761719 292.035156 709.703125 292.046875 709.632812 C 292.105469 709.242188 291.882812 709.167969 291.367188 709.417969 C 275.660156 716.820312 259.253906 718.695312 242.558594 722.546875 C 228.039062 725.894531 203.125 738.320312 201.703125 739.1875 C 200.285156 740.058594 199.832031 739.808594 201.097656 738.800781 C 211.054688 730.914062 237.191406 720.101562 257.597656 712.949219 C 266.214844 709.929688 271.820312 707.796875 274.425781 706.558594 C 288.652344 699.769531 298.367188 692.460938 308.492188 677.8125 C 310.234375 675.289062 310.035156 675.117188 307.839844 677.253906 C 291.285156 693.300781 269.570312 700.457031 246.738281 700.578125 C 244.363281 700.59375 245.753906 700.125 246.265625 700.035156 C 256.945312 698.273438 266.363281 696.011719 274.511719 693.25 C 279.316406 691.625 284.074219 689.476562 288.789062 686.800781 C 295.710938 682.878906 295.503906 682.441406 288.160156 685.507812 C 284.542969 687.019531 281.371094 688.074219 278.628906 688.691406 C 263.984375 691.96875 247.683594 693.742188 232.636719 698.894531 C 230.011719 699.742188 227.152344 700.023438 231.324219 698.242188 C 245.78125 692.078125 261.507812 687.269531 276.503906 682.5625 C 278.757812 681.855469 282.949219 680.1875 289.085938 677.542969 C 306.6875 669.964844 325.417969 657.535156 331.691406 645.175781 C 332.488281 643.605469 332.078125 643.980469 331.894531 644.203125 C 322.167969 655.679688 309.964844 663.101562 295.652344 667.703125 C 294.5625 668.054688 292.988281 668.328125 295.265625 667.164062 C 309.027344 660.125 321.527344 651.945312 331.691406 640.378906 C 334.058594 637.679688 337.339844 634.707031 338.964844 633.1875 C 340.59375 631.664062 339.636719 631.855469 338.652344 632.457031 C 327.296875 639.378906 314.996094 641.574219 301.722656 639.035156 C 292.289062 637.222656 282.945312 635.144531 273.277344 636.050781 C 270.019531 636.453125 268.988281 636.191406 272.261719 635.601562 C 277.292969 634.691406 281.933594 634.480469 285.460938 634.875 C 303.109375 636.839844 323.761719 639.476562 338.488281 627.078125 C 341.761719 624.316406 344.574219 621.113281 346.921875 617.457031 C 348.6875 614.71875 348.390625 614.480469 346.035156 616.722656 C 345.878906 616.882812 345.714844 617.046875 345.558594 617.199219 C 329.335938 633.015625 306.742188 624.8125 287.691406 624.703125 C 282.132812 624.667969 272.320312 627.464844 270.585938 628.113281 C 268.851562 628.765625 269.15625 628.230469 270.296875 627.75 C 280.464844 623.460938 291.082031 621.457031 302.152344 621.726562 C 308.597656 621.886719 315.445312 622.289062 321.480469 621.339844 C 331.15625 619.828125 340.171875 616.398438 348.527344 611.054688 C 349.1875 610.644531 349.679688 610.0625 348.128906 610.566406 C 326.808594 617.523438 322.246094 615.789062 307.082031 614.039062 C 299.222656 613.132812 291.375 613.347656 283.546875 614.675781 C 280.933594 615.152344 278.730469 615.152344 282.546875 614.078125 C 294.675781 610.648438 310.726562 613.03125 324.003906 610.582031 C 331.921875 609.117188 339.109375 606.707031 345.570312 603.34375 C 355.46875 598.207031 363.300781 590.652344 369.070312 580.664062 C 370.601562 578.015625 369.984375 577.515625 367.699219 579.535156 C 360.394531 585.972656 351.667969 589.875 341.511719 591.234375 C 329.515625 592.855469 315.390625 593.058594 303.433594 593.75 C 300.292969 593.886719 299.722656 593.488281 305.273438 592.519531 C 316.425781 590.5625 329.246094 590.609375 339.105469 588.035156 C 352.667969 584.488281 364.414062 578.144531 374.351562 568.980469 C 378.871094 564.816406 383.941406 559.273438 389.5625 552.347656 C 391.71875 549.695312 391.398438 549.351562 388.589844 551.304688 C 387.742188 551.90625 386.882812 552.5 386.023438 553.105469 C 371.535156 563.265625 355.253906 568.167969 337.386719 567.257812 C 335.621094 567.164062 334.828125 566.96875 337.445312 566.527344 C 356.066406 563.398438 376.09375 559.230469 390.671875 547.109375 C 395.367188 543.207031 400.09375 538.21875 404.867188 532.15625 C 408.226562 527.886719 407.878906 527.5625 403.824219 531.175781 C 402.765625 532.117188 401.71875 533.050781 400.664062 533.988281 C 387.972656 545.269531 373.484375 550.539062 356.902344 553.378906 C 354.019531 553.84375 351.957031 553.878906 355.359375 552.832031 C 378.085938 545.804688 397.851562 535.003906 413.699219 517.5625 C 427.210938 502.683594 438.640625 486.304688 447.984375 468.421875 C 449.046875 466.390625 449.511719 465.667969 447.046875 467.765625 C 435.382812 477.691406 423.917969 486.261719 408.660156 490.277344 C 400.769531 492.355469 394.019531 494.523438 387.003906 495.65625 C 377.925781 497.121094 382.28125 495.410156 387.722656 493.574219 C 398.605469 489.910156 409.601562 485.359375 420.722656 479.921875 C 427.074219 476.816406 434.6875 471.617188 440.65625 465.980469 C 444.734375 462.144531 442.988281 462.601562 438.316406 465.691406 C 433.101562 469.144531 427.71875 471.914062 422.183594 473.992188 C 413.050781 477.417969 401.273438 481.261719 386.847656 485.511719 C 383.949219 486.371094 379.125 487.074219 385.472656 484.828125 C 401.621094 479.117188 417.820312 471.933594 432.386719 463.066406 C 438.363281 459.421875 443.183594 455.871094 446.835938 452.414062 C 455.832031 443.917969 468.808594 427.605469 463.96875 414.195312 C 455.488281 390.675781 386.519531 412.667969 370.367188 419.183594 C 354.699219 425.511719 341.34375 433.792969 329.089844 444.820312 C 314.394531 458.046875 301.121094 487.148438 293.75 505.699219 C 292.398438 509.097656 291.1875 510.984375 292.589844 504.445312 C 293.507812 500.15625 300.863281 483.4375 302.980469 479.027344 C 309.519531 465.429688 317.15625 451.691406 329.863281 437.578125 C 331.527344 435.898438 331.527344 434.925781 329.730469 436.253906 C 327.933594 437.582031 259.394531 489.808594 258.722656 542.445312 C 258.695312 544.421875 258.855469 547.746094 257.867188 544.808594 C 254.816406 535.765625 257.414062 512.4375 268.660156 492.59375 C 275.730469 480.125 285.710938 469.117188 288.199219 466.039062 C 291.265625 462.25 289.984375 462.703125 287.429688 465.027344 C 270.554688 480.382812 240.777344 518.246094 242.664062 557.546875 C 242.777344 560.027344 243.097656 562.792969 243.621094 565.84375 C 244.597656 571.59375 243.847656 570.96875 242.222656 566.195312 C 241.128906 562.984375 240.207031 559.710938 239.496094 556.375 C 235.074219 535.65625 241.652344 514.964844 254.65625 498.695312 C 255.253906 497.949219 255.847656 497.207031 256.4375 496.464844 C 259.3125 492.851562 258.96875 492.515625 255.414062 495.460938 C 254.082031 496.570312 252.765625 497.675781 251.449219 498.785156 C 249.460938 500.480469 246.839844 502.410156 243.589844 504.585938 C 222.089844 518.945312 211.015625 540.957031 207.066406 566.136719 C 203.226562 590.601562 207.921875 639.371094 206.230469 639.609375 C 204.535156 639.847656 202.933594 628.472656 199.757812 611.074219 C 195.683594 588.75 196.296875 563.042969 204.386719 541.820312 C 208.371094 531.363281 215.515625 522.035156 222.265625 512.269531 C 226.113281 506.710938 223.070312 509.332031 221.691406 510.789062 C 219.410156 513.199219 213.3125 519.96875 211.386719 522.667969 C 204.4375 532.433594 199.261719 539.417969 194.84375 551.996094 C 186.320312 576.257812 184.160156 593.425781 186.609375 615.136719 C 186.945312 618.113281 186.628906 618.664062 185.742188 616.265625 C 179.257812 598.742188 182.886719 580.667969 190.085938 551.601562 C 191.246094 546.914062 190.8125 546.011719 189.4375 548.113281 C 188.0625 550.210938 173.609375 574.183594 170.410156 588.015625 C 162.914062 620.417969 185.261719 686.175781 185.714844 687.832031 C 186.445312 690.5 186.03125 690.300781 185.429688 689.140625 C 183.269531 684.980469 177.523438 669.160156 174.589844 658.8125 C 170.332031 643.820312 166.199219 627.523438 166.816406 612.042969 C 167.003906 607.324219 166.523438 607.261719 165.390625 611.847656 C 162.722656 622.628906 162.851562 630.988281 163.355469 640.171875 C 163.648438 645.519531 165.269531 655.488281 165.613281 657.085938 C 165.960938 658.6875 166.101562 660.085938 165.050781 657.105469 C 159.117188 640.328125 157.195312 613.09375 163.277344 591.144531 C 164.742188 585.867188 164.203125 585.691406 161.917969 590.675781 C 153.742188 608.484375 150.753906 626.953125 151.632812 643.050781 C 152.007812 649.96875 152.660156 655.875 153.222656 658.730469 C 153.71875 661.265625 153.464844 661.644531 152.980469 660.429688 C 144.441406 638.867188 145.984375 613.347656 156.277344 591.421875 C 158.347656 587.035156 160.710938 582.632812 163.359375 578.226562 C 168.246094 570.128906 167.859375 569.839844 162.207031 577.371094 C 158.332031 582.542969 154.734375 587.984375 151.710938 593.695312 C 143.925781 608.417969 138.980469 623.855469 138.113281 640.144531 C 137.492188 651.785156 138.550781 663.433594 139.714844 675.007812 C 141.164062 689.460938 147.039062 711.230469 148.609375 715.960938 C 150.175781 720.6875 149.425781 720.160156 148.441406 718.359375 C 141.050781 704.886719 135.957031 676.058594 135.714844 654.996094 C 135.652344 649.789062 135.039062 652.640625 135.039062 652.640625 C 129.175781 677.027344 130.027344 698.507812 138.125 725.945312 C 139 728.898438 137.980469 728.914062 136.519531 725.710938 C 131.792969 715.355469 127.199219 698.605469 127 684.59375 C 126.851562 673.5 128.40625 662.066406 131.847656 650.320312 C 133.136719 645.929688 132.625 644.980469 130.507812 649.800781 C 127.992188 655.535156 124.632812 665.363281 122.996094 672.898438 C 116.019531 705.058594 108.003906 741.785156 127.816406 773.542969 C 129.476562 776.207031 134.445312 782.117188 135.332031 783.199219 C 136.222656 784.28125 135.933594 784.515625 134.792969 783.820312 C 126.132812 778.539062 119.964844 769.785156 117.027344 761.628906 C 101.886719 719.589844 127.652344 644.890625 127.9375 644.042969 C 128.570312 642.164062 128.070312 642.714844 127.890625 643.054688 C 121.304688 656.144531 113.875 669.546875 110.109375 683.183594 C 101.945312 712.777344 98.511719 741.394531 101.835938 762.386719 C 102.238281 764.929688 101.746094 764.570312 101.300781 762.800781 C 96.648438 744.332031 96.820312 728.503906 99.601562 711.96875 C 100.429688 707.042969 101.304688 702.558594 102.230469 698.511719 C 103.09375 694.746094 102.648438 694.585938 100.886719 698.023438 C 94.199219 711.128906 89.339844 724.21875 86.324219 737.3125 C 79.277344 767.925781 97.714844 802.523438 113.421875 827.179688 C 114.507812 828.886719 113.667969 828.183594 113.269531 827.695312 C 87.59375 796.300781 74.570312 762.855469 86.675781 715.074219 C 87.589844 711.46875 87.199219 712.054688 85.84375 714.683594 C 85.289062 715.761719 84.78125 716.863281 84.296875 717.992188 C 73.34375 743.621094 73.917969 775.902344 81.542969 801.996094 C 87.738281 823.222656 101.113281 837.746094 117.871094 852.464844 C 119.5 853.894531 119.378906 854.398438 118 853.5625 C 103.863281 844.929688 90.328125 833.3125 80.695312 819.710938 C 75.242188 812.007812 71.878906 803.679688 70.3125 792.890625 C 70.101562 791.445312 69.679688 790.523438 69.558594 792.558594 C 68.847656 804.660156 77.007812 827.914062 90.804688 841.078125 C 94.53125 844.625 98.46875 847.910156 102.636719 850.925781 C 103.507812 851.5625 103.449219 851.671875 102.441406 851.25 Z M 131.226562 869.957031 C 138.960938 829.464844 152.285156 790.863281 169.019531 753.257812 C 181.980469 724.128906 197.921875 695.5625 214.898438 667.03125 C 252.277344 604.25 293.0625 545.207031 343.105469 492.742188 C 361.105469 473.875 385.070312 451.328125 406.441406 442.023438 C 407.671875 441.488281 406.730469 442.230469 406.496094 442.367188 C 394.597656 449.074219 383.828125 456.855469 373.671875 466.007812 C 344.816406 492.035156 318.894531 521.808594 294.929688 553.386719 C 248.871094 614.078125 209.921875 679.058594 178.09375 748.316406 C 158.34375 791.277344 149.445312 813.765625 135.902344 878.285156 C 133.859375 888.011719 133.082031 898.765625 132.800781 906.910156 C 132.152344 925.824219 134.597656 944.3125 139.78125 962.523438 C 142.484375 972.023438 145.785156 981.339844 149.371094 990.539062 C 151.128906 995.050781 152.960938 999.53125 154.832031 1004 C 156.34375 1007.621094 159.363281 1015.628906 159.316406 1016.253906 C 159.21875 1017.734375 152.625 1006.289062 148.550781 998.671875 C 147.464844 996.640625 146.480469 994.550781 145.5 992.460938 C 127.46875 953.960938 123.296875 911.460938 131.226562 869.957031 Z M 131.226562 869.957031 " fill-opacity="1" fill-rule="nonzero"/></g><g transform="matrix(1, 0, 0, 1, 264, 456)"><g clip-path="url(#4ec292e614)"><g clip-path="url(#a3ad377898)"><g transform="matrix(1, 0, 0, 1, 0, 0.000000000000113687)"><g clip-path="url(#290d721eee)"><g fill="#000000" fill-opacity="1"><g transform="translate(1.081739, 432.905736)"><g><path d="M 200.359375 -55.671875 C 205.421875 -55.109375 207.457031 -53.703125 206.46875 -51.453125 C 205.488281 -49.203125 203.378906 -46.882812 200.140625 -44.5 C 196.910156 -42.113281 194.171875 -40.359375 191.921875 -39.234375 C 179.546875 -33.046875 166.46875 -28.894531 152.6875 -26.78125 C 138.90625 -24.675781 125.410156 -21.234375 112.203125 -16.453125 C 106.015625 -14.484375 99.96875 -12.019531 94.0625 -9.0625 C 88.15625 -6.113281 82.390625 -3.09375 76.765625 0 C 73.390625 1.6875 70.296875 3.375 67.484375 5.0625 C 64.671875 6.75 62.140625 9.140625 59.890625 12.234375 C 59.609375 12.515625 58.691406 13.5 57.140625 15.1875 C 55.597656 16.875 54.191406 18.421875 52.921875 19.828125 C 51.660156 21.234375 51.03125 21.796875 51.03125 21.515625 C 48.21875 24.328125 45.265625 26.859375 42.171875 29.109375 C 43.296875 28.546875 44.984375 27.5625 47.234375 26.15625 C 49.484375 24.75 50.75 24.328125 51.03125 24.890625 C 51.3125 26.578125 50.394531 28.191406 48.28125 29.734375 C 46.175781 31.285156 43.71875 32.550781 40.90625 33.53125 C 38.101562 34.519531 36 35.15625 34.59375 35.4375 C 30.09375 36 25.378906 35.503906 20.453125 33.953125 C 15.535156 32.410156 12.375 29.109375 10.96875 24.046875 C 9 17.015625 10.050781 9.984375 14.125 2.953125 C 18.207031 -4.078125 22.5 -9.84375 27 -14.34375 C 31.5 -18.84375 36.28125 -22.078125 41.34375 -24.046875 C 44.425781 -25.453125 47.722656 -26.578125 51.234375 -27.421875 C 54.753906 -28.265625 57.078125 -30.375 58.203125 -33.75 C 58.203125 -33.46875 58.34375 -35.082031 58.625 -38.59375 C 58.90625 -42.101562 59.609375 -44.140625 60.734375 -44.703125 C 61.015625 -44.703125 60.800781 -43.226562 60.09375 -40.28125 C 59.394531 -37.332031 59.046875 -35.859375 59.046875 -35.859375 C 59.609375 -37.546875 60.097656 -39.226562 60.515625 -40.90625 C 60.941406 -42.59375 61.4375 -44.421875 62 -46.390625 C 61.71875 -46.109375 61.296875 -46.109375 60.734375 -46.390625 C 60.171875 -48.359375 60.3125 -51.03125 61.15625 -54.40625 C 62 -57.78125 63.050781 -61.222656 64.3125 -64.734375 C 65.582031 -68.253906 66.359375 -70.859375 66.640625 -72.546875 C 67.765625 -76.484375 68.890625 -80.421875 70.015625 -84.359375 C 71.140625 -88.296875 72.125 -92.234375 72.96875 -96.171875 C 74.9375 -103.484375 76.484375 -110.582031 77.609375 -117.46875 C 78.734375 -124.351562 79.71875 -131.453125 80.5625 -138.765625 C 81.40625 -146.921875 82.878906 -154.863281 84.984375 -162.59375 C 87.097656 -170.332031 89.140625 -178 91.109375 -185.59375 C 91.390625 -186.4375 92.234375 -189.25 93.640625 -194.03125 C 95.046875 -198.8125 96.519531 -203.445312 98.0625 -207.9375 C 99.613281 -212.4375 100.671875 -214.6875 101.234375 -214.6875 C 101.515625 -214.6875 101.375 -213.703125 100.8125 -211.734375 C 100.25 -209.773438 100.109375 -208.65625 100.390625 -208.375 C 101.796875 -212.582031 103.0625 -216.796875 104.1875 -221.015625 C 105.3125 -225.234375 106.4375 -229.3125 107.5625 -233.25 C 107.28125 -232.96875 106.644531 -231.84375 105.65625 -229.875 C 104.675781 -227.90625 104.1875 -227.0625 104.1875 -227.34375 C 103.90625 -229.59375 104.535156 -232.40625 106.078125 -235.78125 C 107.628906 -239.15625 108.828125 -241.96875 109.671875 -244.21875 L 115.578125 -261.9375 C 117.828125 -267.84375 120.144531 -273.75 122.53125 -279.65625 C 124.925781 -285.5625 127.945312 -291.179688 131.59375 -296.515625 C 136.375 -303.265625 142 -309.097656 148.46875 -314.015625 C 154.9375 -318.941406 162.390625 -321.546875 170.828125 -321.828125 C 176.734375 -322.390625 182.640625 -321.753906 188.546875 -319.921875 C 194.453125 -318.097656 199.796875 -315.78125 204.578125 -312.96875 C 213.566406 -308.1875 219.957031 -302.421875 223.75 -295.671875 C 227.550781 -288.929688 229.734375 -281.0625 230.296875 -272.0625 C 230.859375 -264.75 229.660156 -256.660156 226.703125 -247.796875 C 223.753906 -238.941406 219.820312 -230.644531 214.90625 -222.90625 C 209.988281 -215.175781 204.578125 -209.066406 198.671875 -204.578125 C 195.296875 -202.046875 191.425781 -199.9375 187.0625 -198.25 C 182.707031 -196.5625 178.421875 -195.859375 174.203125 -196.140625 C 171.390625 -196.421875 168.785156 -197.332031 166.390625 -198.875 C 164.003906 -200.425781 163.65625 -202.75 165.34375 -205.84375 C 165.34375 -205.84375 165.484375 -205.984375 165.765625 -206.265625 C 166.046875 -206.546875 166.328125 -206.828125 166.609375 -207.109375 L 166.1875 -207.109375 C 166.1875 -207.109375 166.957031 -208.722656 168.5 -211.953125 C 170.050781 -215.179688 171.8125 -218.832031 173.78125 -222.90625 C 175.75 -226.988281 177.644531 -230.503906 179.46875 -233.453125 C 181.300781 -236.410156 182.359375 -237.890625 182.640625 -237.890625 C 182.921875 -237.890625 182.566406 -236.765625 181.578125 -234.515625 C 180.597656 -232.265625 179.6875 -229.941406 178.84375 -227.546875 C 178 -225.160156 177.578125 -223.828125 177.578125 -223.546875 C 184.046875 -237.046875 189.390625 -250.6875 193.609375 -264.46875 C 194.453125 -267 195.4375 -270.300781 196.5625 -274.375 C 197.6875 -278.457031 198.457031 -282.535156 198.875 -286.609375 C 199.300781 -290.691406 198.671875 -293.992188 196.984375 -296.515625 C 195.296875 -299.328125 192.972656 -300.453125 190.015625 -299.890625 C 187.066406 -299.328125 184.113281 -298.0625 181.15625 -296.09375 C 178.207031 -294.132812 175.890625 -292.3125 174.203125 -290.625 C 168.296875 -284.71875 163.375 -277.828125 159.4375 -269.953125 C 155.5 -262.078125 151.984375 -254.34375 148.890625 -246.75 C 151.421875 -252.375 154.300781 -258.628906 157.53125 -265.515625 C 160.769531 -272.410156 164.707031 -278.8125 169.34375 -284.71875 C 173.988281 -290.625 179.40625 -294.695312 185.59375 -296.9375 C 189.8125 -298.625 192.765625 -298.625 194.453125 -296.9375 C 196.140625 -295.257812 196.984375 -292.875 196.984375 -289.78125 C 196.984375 -286.6875 196.628906 -283.519531 195.921875 -280.28125 C 195.222656 -277.050781 194.59375 -274.734375 194.03125 -273.328125 C 194.59375 -275.015625 195.082031 -277.613281 195.5 -281.125 C 195.925781 -284.644531 196 -288.085938 195.71875 -291.453125 C 195.4375 -294.828125 194.171875 -296.796875 191.921875 -297.359375 C 187.984375 -298.484375 183.972656 -297.007812 179.890625 -292.9375 C 175.816406 -288.863281 172.796875 -285.5625 170.828125 -283.03125 C 162.109375 -271.78125 155.078125 -259.191406 149.734375 -245.265625 C 144.390625 -231.347656 139.46875 -217.785156 134.96875 -204.578125 C 125.976562 -177.296875 118.109375 -149.59375 111.359375 -121.46875 C 104.609375 -93.351562 95.890625 -65.941406 85.203125 -39.234375 C 99.265625 -43.441406 113.460938 -47.160156 127.796875 -50.390625 C 142.140625 -53.628906 156.625 -55.671875 171.25 -56.515625 C 176.03125 -56.796875 180.953125 -56.863281 186.015625 -56.71875 C 191.078125 -56.582031 195.859375 -56.234375 200.359375 -55.671875 Z M 111.359375 -239.15625 C 109.109375 -231.84375 106.859375 -224.53125 104.609375 -217.21875 C 102.359375 -209.914062 100.25 -202.609375 98.28125 -195.296875 C 99.96875 -200.921875 101.796875 -206.257812 103.765625 -211.3125 C 105.734375 -216.375 107.703125 -221.4375 109.671875 -226.5 C 113.046875 -233.8125 116.421875 -241.753906 119.796875 -250.328125 C 123.171875 -258.910156 126.960938 -267.421875 131.171875 -275.859375 C 135.390625 -284.296875 140.519531 -291.601562 146.5625 -297.78125 C 152.613281 -303.96875 159.859375 -308.046875 168.296875 -310.015625 C 161.546875 -308.609375 155.566406 -306.003906 150.359375 -302.203125 C 145.160156 -298.410156 140.3125 -293.425781 135.8125 -287.25 C 130.46875 -279.9375 125.828125 -272.269531 121.890625 -264.25 C 117.960938 -256.238281 114.453125 -247.875 111.359375 -239.15625 Z M 133.703125 -206.265625 L 133.703125 -206.6875 C 132.015625 -201.625 130.328125 -196.628906 128.640625 -191.703125 C 126.960938 -186.785156 125.421875 -181.796875 124.015625 -176.734375 L 133.703125 -205.84375 L 133.703125 -206.6875 Z M 41.765625 29.53125 L 42.171875 29.109375 C 41.898438 29.109375 41.765625 29.175781 41.765625 29.3125 C 41.765625 29.457031 41.765625 29.53125 41.765625 29.53125 Z M 41.765625 29.53125 "/></g></g></g><g fill="#000000" fill-opacity="1"><g transform="translate(211.554976, 432.905736)"><g/></g></g><g fill="#000000" fill-opacity="1"><g transform="translate(329.656217, 432.905736)"><g><path d="M 110.515625 -103.765625 C 111.359375 -99.828125 110.441406 -95.75 107.765625 -91.53125 C 105.097656 -87.3125 102.640625 -83.796875 100.390625 -80.984375 C 96.734375 -75.640625 93.144531 -70.4375 89.625 -65.375 C 86.113281 -60.3125 82.390625 -55.25 78.453125 -50.1875 C 74.234375 -44.570312 69.378906 -38.109375 63.890625 -30.796875 C 58.410156 -23.484375 52.015625 -18.984375 44.703125 -17.296875 C 43.578125 -17.296875 41.46875 -17.644531 38.375 -18.34375 C 35.289062 -19.050781 32.410156 -19.894531 29.734375 -20.875 C 27.066406 -21.863281 25.734375 -22.78125 25.734375 -23.625 L 26.578125 -23.625 C 24.890625 -24.46875 24.253906 -24.46875 24.671875 -23.625 C 25.097656 -22.78125 24.046875 -23.34375 21.515625 -25.3125 C 19.546875 -26.71875 17.925781 -28.265625 16.65625 -29.953125 C 15.394531 -31.640625 14.0625 -33.46875 12.65625 -35.4375 C 10.40625 -38.53125 8.015625 -41.617188 5.484375 -44.703125 C 2.953125 -47.796875 1.265625 -51.171875 0.421875 -54.828125 C 0.421875 -55.671875 0.347656 -57.5 0.203125 -60.3125 C 0.0664062 -63.125 0.140625 -65.796875 0.421875 -68.328125 C 0.703125 -70.859375 1.40625 -72.125 2.53125 -72.125 C 3.09375 -72.125 3.234375 -71.769531 2.953125 -71.0625 C 2.671875 -70.363281 2.671875 -70.015625 2.953125 -70.015625 L 4.21875 -77.609375 C 3.65625 -76.765625 3.234375 -76.203125 2.953125 -75.921875 C 2.671875 -75.921875 2.8125 -77.46875 3.375 -80.5625 C 3.9375 -83.65625 4.707031 -87.3125 5.6875 -91.53125 C 6.675781 -95.75 7.59375 -99.546875 8.4375 -102.921875 C 9.28125 -106.296875 9.84375 -108.265625 10.125 -108.828125 C 11.8125 -113.328125 13.425781 -117.820312 14.96875 -122.3125 C 16.519531 -126.8125 19.40625 -130.328125 23.625 -132.859375 C 26.71875 -135.109375 30.234375 -136.09375 34.171875 -135.8125 C 38.109375 -135.53125 42.039062 -134.546875 45.96875 -132.859375 C 47.65625 -132.296875 50.253906 -131.097656 53.765625 -129.265625 C 57.285156 -127.441406 59.046875 -125.410156 59.046875 -123.171875 C 59.046875 -122.046875 58.625 -121.203125 57.78125 -120.640625 C 56.9375 -120.078125 56.234375 -119.515625 55.671875 -118.953125 C 55.953125 -119.234375 56.515625 -119.375 57.359375 -119.375 C 57.921875 -119.09375 57.21875 -117.40625 55.25 -114.3125 C 53.28125 -111.21875 52.015625 -109.8125 51.453125 -110.09375 C 51.171875 -110.09375 51.171875 -110.515625 51.453125 -111.359375 C 51.734375 -112.203125 52.015625 -112.90625 52.296875 -113.46875 C 44.429688 -100.53125 37.828125 -86.328125 32.484375 -70.859375 C 33.328125 -72.828125 34.734375 -76.128906 36.703125 -80.765625 C 38.671875 -85.410156 40.707031 -89.769531 42.8125 -93.84375 C 44.914062 -97.925781 46.109375 -99.828125 46.390625 -99.546875 C 46.671875 -99.546875 45.96875 -97.785156 44.28125 -94.265625 C 42.601562 -90.753906 40.566406 -86.328125 38.171875 -80.984375 C 35.785156 -75.640625 33.675781 -70.222656 31.84375 -64.734375 C 30.019531 -59.253906 29.035156 -54.332031 28.890625 -49.96875 C 28.753906 -45.613281 30.09375 -42.738281 32.90625 -41.34375 C 35.15625 -40.21875 37.753906 -40.351562 40.703125 -41.75 C 43.648438 -43.15625 46.53125 -44.984375 49.34375 -47.234375 C 52.15625 -49.484375 54.265625 -51.171875 55.671875 -52.296875 C 59.609375 -55.390625 64.035156 -58.832031 68.953125 -62.625 C 73.878906 -66.425781 77.75 -70.15625 80.5625 -73.8125 C 80 -73.25 79.015625 -72.96875 77.609375 -72.96875 C 77.328125 -73.53125 78.097656 -75.359375 79.921875 -78.453125 C 81.753906 -81.546875 84.144531 -85.0625 87.09375 -89 C 90.050781 -92.9375 92.863281 -96.519531 95.53125 -99.75 C 98.207031 -102.988281 99.96875 -104.890625 100.8125 -105.453125 C 102.21875 -106.578125 104.113281 -107.28125 106.5 -107.5625 C 108.894531 -107.84375 110.234375 -106.578125 110.515625 -103.765625 Z M 36.703125 -156.90625 C 36.703125 -156.90625 36.28125 -157.535156 35.4375 -158.796875 C 34.59375 -160.066406 34.171875 -160.84375 34.171875 -161.125 C 34.171875 -161.6875 34.097656 -163.09375 33.953125 -165.34375 C 33.816406 -167.59375 33.957031 -169.703125 34.375 -171.671875 C 34.800781 -173.640625 35.71875 -174.203125 37.125 -173.359375 C 37.125 -173.921875 37.894531 -175.113281 39.4375 -176.9375 C 40.988281 -178.769531 41.0625 -178.28125 39.65625 -175.46875 C 43.300781 -180.25 46.671875 -186.015625 49.765625 -192.765625 L 44.703125 -185.171875 C 46.671875 -189.109375 48.78125 -194.097656 51.03125 -200.140625 C 53.28125 -206.191406 54.546875 -209.914062 54.828125 -211.3125 C 54.828125 -211.59375 54.753906 -212.4375 54.609375 -213.84375 C 54.472656 -215.25 54.546875 -216.09375 54.828125 -216.375 C 50.328125 -218.0625 48.921875 -220.03125 50.609375 -222.28125 C 52.296875 -224.53125 54.125 -226.359375 56.09375 -227.765625 C 55.25 -227.765625 54.6875 -228.046875 54.40625 -228.609375 C 53.5625 -229.453125 53.984375 -230.15625 55.671875 -230.71875 C 57.359375 -231.28125 58.484375 -231.703125 59.046875 -231.984375 C 62.140625 -233.390625 65.375 -233.8125 68.75 -233.25 C 72.125 -232.6875 75.21875 -231.703125 78.03125 -230.296875 C 80.28125 -228.890625 82.390625 -226.78125 84.359375 -223.96875 C 86.328125 -221.15625 87.734375 -218.484375 88.578125 -215.953125 C 89.421875 -213.140625 89.066406 -210.328125 87.515625 -207.515625 C 85.972656 -204.710938 84.21875 -202.46875 82.25 -200.78125 C 81.40625 -199.9375 80.347656 -199.160156 79.078125 -198.453125 C 77.816406 -197.753906 76.625 -196.984375 75.5 -196.140625 C 74.375 -194.734375 73.671875 -193.113281 73.390625 -191.28125 C 73.109375 -189.457031 72.40625 -187.84375 71.28125 -186.4375 C 70.71875 -185.3125 69.875 -184.46875 68.75 -183.90625 C 67.625 -183.34375 66.78125 -182.5 66.21875 -181.375 C 64.53125 -180.25 64.390625 -178.984375 65.796875 -177.578125 C 64.109375 -176.734375 62.703125 -175.75 61.578125 -174.625 C 59.609375 -171.25 57.78125 -168.503906 56.09375 -166.390625 C 54.40625 -164.285156 52.296875 -162.25 49.765625 -160.28125 C 52.015625 -161.6875 54.050781 -163.160156 55.875 -164.703125 C 57.707031 -166.253906 59.609375 -168.4375 61.578125 -171.25 C 64.953125 -175.46875 69.03125 -178.5625 73.8125 -180.53125 C 71.84375 -178.28125 70.296875 -175.890625 69.171875 -173.359375 C 68.046875 -170.828125 66.21875 -168.71875 63.6875 -167.03125 C 62 -166.1875 61.082031 -165.972656 60.9375 -166.390625 C 60.800781 -166.816406 60.734375 -167.097656 60.734375 -167.234375 C 60.734375 -167.378906 59.75 -166.609375 57.78125 -164.921875 C 57.78125 -164.921875 58.128906 -164.988281 58.828125 -165.125 C 59.535156 -165.269531 59.609375 -165.0625 59.046875 -164.5 C 57.078125 -162.8125 55.109375 -160.84375 53.140625 -158.59375 C 51.171875 -156.34375 48.921875 -154.65625 46.390625 -153.53125 C 45.265625 -153.25 44.140625 -152.828125 43.015625 -152.265625 C 41.898438 -151.703125 40.640625 -151.703125 39.234375 -152.265625 C 37.828125 -153.109375 37.191406 -153.953125 37.328125 -154.796875 C 37.472656 -155.640625 37.265625 -156.34375 36.703125 -156.90625 Z M 28.6875 -56.515625 C 28.96875 -57.078125 28.96875 -57.21875 28.6875 -56.9375 L 27.84375 -53.5625 L 28.6875 -56.09375 Z M 42.59375 -181.796875 L 44.28125 -184.328125 C 44 -183.484375 43.644531 -182.847656 43.21875 -182.421875 C 42.800781 -182.003906 42.59375 -181.796875 42.59375 -181.796875 Z M 38.390625 -173.78125 C 38.109375 -173.5 37.828125 -173.359375 37.546875 -173.359375 C 37.828125 -173.359375 37.96875 -173.285156 37.96875 -173.140625 C 37.96875 -173.003906 37.96875 -172.9375 37.96875 -172.9375 C 38.25 -173.21875 38.390625 -173.5 38.390625 -173.78125 Z M 38.390625 -173.78125 "/></g></g></g><g fill="#000000" fill-opacity="1"><g transform="translate(409.374556, 432.905736)"><g/></g></g><g fill="#000000" fill-opacity="1"><g transform="translate(527.475797, 432.905736)"><g><path d="M 223.125 -102.078125 L 223.125 -101.65625 C 223.6875 -96.3125 222.28125 -91.878906 218.90625 -88.359375 C 215.53125 -84.847656 212.300781 -81.265625 209.21875 -77.609375 C 206.40625 -73.953125 203.453125 -70.15625 200.359375 -66.21875 C 197.265625 -62.28125 193.890625 -58.484375 190.234375 -54.828125 C 186.015625 -50.328125 181.863281 -45.828125 177.78125 -41.328125 C 173.707031 -36.835938 169.28125 -32.765625 164.5 -29.109375 C 164.21875 -28.828125 162.390625 -27.703125 159.015625 -25.734375 C 155.640625 -23.765625 152.332031 -21.796875 149.09375 -19.828125 C 145.863281 -17.859375 143.96875 -16.59375 143.40625 -16.03125 L 143.40625 -16.875 C 141.71875 -15.75 141.4375 -15.328125 142.5625 -15.609375 C 143.6875 -15.890625 142.984375 -14.90625 140.453125 -12.65625 C 138.484375 -10.96875 136.300781 -9.628906 133.90625 -8.640625 C 131.519531 -7.660156 129.203125 -6.609375 126.953125 -5.484375 C 124.148438 -4.359375 121.484375 -3.019531 118.953125 -1.46875 C 116.421875 0.0703125 113.609375 0.984375 110.515625 1.265625 C 109.671875 1.265625 107.5625 0.703125 104.1875 -0.421875 C 100.8125 -1.546875 97.71875 -2.953125 94.90625 -4.640625 C 92.09375 -6.328125 91.109375 -7.734375 91.953125 -8.859375 C 92.234375 -9.421875 92.582031 -9.421875 93 -8.859375 C 93.425781 -8.296875 93.78125 -8.15625 94.0625 -8.4375 C 92.09375 -9.5625 90.265625 -11.25 88.578125 -13.5 C 88.578125 -13.21875 88.644531 -12.9375 88.78125 -12.65625 C 88.925781 -12.375 89 -12.09375 89 -11.8125 C 88.71875 -11.53125 87.519531 -12.796875 85.40625 -15.609375 C 83.300781 -18.421875 81.125 -21.375 78.875 -24.46875 C 76.625 -27.5625 75.359375 -29.390625 75.078125 -29.953125 C 73.109375 -33.890625 71.28125 -38.175781 69.59375 -42.8125 C 67.90625 -47.445312 66.640625 -52.015625 65.796875 -56.515625 L 45.546875 -22.78125 C 43.023438 -19.125 40.78125 -14.625 38.8125 -9.28125 C 36.84375 -3.9375 33.46875 -0.703125 28.6875 0.421875 C 28.40625 0.421875 26.15625 0.703125 21.9375 1.265625 C 17.71875 1.828125 14.90625 1.125 13.5 -0.84375 C 14.0625 -0.28125 15.113281 0.140625 16.65625 0.421875 C 18.207031 0.703125 19.6875 0.84375 21.09375 0.84375 C 19.40625 0.5625 17.644531 0.140625 15.8125 -0.421875 C 13.988281 -0.984375 12.515625 -1.6875 11.390625 -2.53125 C 11.390625 -2.25 11.457031 -2.035156 11.59375 -1.890625 C 11.738281 -1.753906 11.8125 -1.6875 11.8125 -1.6875 C 11.8125 -1.40625 10.613281 -2.316406 8.21875 -4.421875 C 5.832031 -6.535156 4.359375 -7.734375 3.796875 -8.015625 C 2.390625 -10.265625 1.40625 -12.65625 0.84375 -15.1875 C 0.28125 -17.71875 0 -20.25 0 -22.78125 C 0 -27.5625 0.5625 -32.269531 1.6875 -36.90625 C 2.8125 -41.539062 3.796875 -46.109375 4.640625 -50.609375 C 6.890625 -61.296875 9.421875 -71.910156 12.234375 -82.453125 C 15.046875 -93.003906 17.296875 -103.625 18.984375 -114.3125 C 22.921875 -134.269531 27.984375 -153.671875 34.171875 -172.515625 C 35.859375 -177.859375 37.546875 -183.0625 39.234375 -188.125 C 40.921875 -193.1875 42.742188 -198.25 44.703125 -203.3125 C 44.984375 -204.15625 45.753906 -206.398438 47.015625 -210.046875 C 48.285156 -213.703125 49.691406 -217.285156 51.234375 -220.796875 C 52.785156 -224.316406 53.84375 -226.078125 54.40625 -226.078125 C 54.40625 -226.078125 53.984375 -224.738281 53.140625 -222.0625 C 52.296875 -219.394531 52.015625 -217.921875 52.296875 -217.640625 C 53.703125 -221.859375 55.109375 -226.003906 56.515625 -230.078125 C 57.921875 -234.160156 59.46875 -238.3125 61.15625 -242.53125 C 61.15625 -242.53125 61.222656 -242.597656 61.359375 -242.734375 C 61.503906 -242.878906 61.578125 -243.09375 61.578125 -243.375 C 62.140625 -244.78125 62.769531 -246.675781 63.46875 -249.0625 C 64.175781 -251.457031 64.8125 -253.5 65.375 -255.1875 L 73.8125 -272.90625 C 76.0625 -277.96875 78.378906 -282.957031 80.765625 -287.875 C 83.160156 -292.789062 85.765625 -297.5 88.578125 -302 C 92.796875 -309.3125 97.859375 -316.625 103.765625 -323.9375 C 109.671875 -331.25 116.5625 -336.734375 124.4375 -340.390625 C 130.894531 -343.484375 137.078125 -344.046875 142.984375 -342.078125 C 148.890625 -340.109375 154.234375 -336.800781 159.015625 -332.15625 C 163.796875 -327.519531 167.59375 -322.25 170.40625 -316.34375 C 172.65625 -311.5625 174.0625 -306.988281 174.625 -302.625 C 175.1875 -298.269531 174.625 -293.707031 172.9375 -288.9375 C 170.125 -280.21875 166.253906 -271.425781 161.328125 -262.5625 C 156.410156 -253.707031 151 -245.765625 145.09375 -238.734375 C 140.3125 -233.390625 136.09375 -227.0625 132.4375 -219.75 C 128.78125 -212.445312 124.847656 -205.5625 120.640625 -199.09375 C 115.015625 -190.375 109.316406 -181.796875 103.546875 -173.359375 C 97.785156 -164.921875 91.671875 -156.625 85.203125 -148.46875 C 82.390625 -144.8125 79.578125 -141.222656 76.765625 -137.703125 C 73.953125 -134.191406 71 -130.609375 67.90625 -126.953125 C 64.53125 -123.023438 62 -119.300781 60.3125 -115.78125 C 58.625 -112.269531 57.078125 -107.984375 55.671875 -102.921875 C 52.859375 -93.078125 50.046875 -83.160156 47.234375 -73.171875 C 44.421875 -63.191406 41.894531 -53.28125 39.65625 -43.4375 L 51.03125 -63.265625 C 51.59375 -64.109375 53 -66.144531 55.25 -69.375 C 57.5 -72.613281 58.625 -74.09375 58.625 -73.8125 C 60.875 -78.3125 63.6875 -82.8125 67.0625 -87.3125 C 67.0625 -87.3125 66.359375 -86.46875 64.953125 -84.78125 C 63.546875 -83.09375 62.140625 -81.40625 60.734375 -79.71875 C 59.328125 -78.03125 58.625 -77.1875 58.625 -77.1875 C 58.34375 -79.71875 59.816406 -83.160156 63.046875 -87.515625 C 66.285156 -91.878906 68.609375 -95.046875 70.015625 -97.015625 C 72.265625 -100.953125 74.722656 -104.75 77.390625 -108.40625 C 80.066406 -112.0625 82.671875 -115.71875 85.203125 -119.375 C 90.828125 -126.957031 96.800781 -134.40625 103.125 -141.71875 C 109.457031 -149.03125 116.140625 -155.78125 123.171875 -161.96875 C 128.222656 -166.46875 134.265625 -171.175781 141.296875 -176.09375 C 148.328125 -181.019531 155.707031 -184.394531 163.4375 -186.21875 C 171.175781 -188.050781 178.28125 -186.15625 184.75 -180.53125 C 191.21875 -174.90625 194.519531 -169 194.65625 -162.8125 C 194.800781 -156.625 193.113281 -150.578125 189.59375 -144.671875 C 186.082031 -138.765625 181.796875 -133.28125 176.734375 -128.21875 C 169.984375 -121.757812 162.597656 -115.859375 154.578125 -110.515625 C 146.566406 -105.171875 138.484375 -100.25 130.328125 -95.75 C 125.835938 -93.21875 121.410156 -90.828125 117.046875 -88.578125 C 112.691406 -86.328125 108.125 -84.21875 103.34375 -82.25 C 102.5 -81.96875 100.953125 -81.472656 98.703125 -80.765625 C 96.453125 -80.066406 95.046875 -79.4375 94.484375 -78.875 C 94.484375 -78.59375 94.691406 -77.046875 95.109375 -74.234375 C 95.535156 -71.421875 95.46875 -69.875 94.90625 -69.59375 C 94.34375 -69.59375 93.78125 -70.4375 93.21875 -72.125 C 94.625 -64.8125 96.660156 -57.359375 99.328125 -49.765625 C 102.003906 -42.179688 105.734375 -35.578125 110.515625 -29.953125 C 109.671875 -31.359375 108.265625 -34.023438 106.296875 -37.953125 C 104.328125 -41.890625 102.5 -45.753906 100.8125 -49.546875 C 99.125 -53.347656 98.140625 -55.953125 97.859375 -57.359375 C 98.421875 -55.671875 100.035156 -52.226562 102.703125 -47.03125 C 105.378906 -41.832031 108.332031 -36.984375 111.5625 -32.484375 C 114.800781 -27.984375 117.40625 -25.59375 119.375 -25.3125 C 120.21875 -25.03125 120.988281 -24.957031 121.6875 -25.09375 C 122.394531 -25.238281 123.03125 -25.3125 123.59375 -25.3125 C 130.332031 -25.875 136.515625 -28.820312 142.140625 -34.15625 C 147.765625 -39.5 152.96875 -44 157.75 -47.65625 C 162.53125 -51.3125 167.800781 -55.035156 173.5625 -58.828125 C 179.332031 -62.628906 184.1875 -66.5 188.125 -70.4375 C 187.5625 -69.875 186.578125 -69.59375 185.171875 -69.59375 C 184.890625 -70.15625 186.015625 -72.125 188.546875 -75.5 C 191.078125 -78.875 194.238281 -82.671875 198.03125 -86.890625 C 201.832031 -91.109375 205.207031 -94.90625 208.15625 -98.28125 C 211.101562 -101.65625 212.859375 -103.625 213.421875 -104.1875 C 215.390625 -105.875 217.425781 -106.925781 219.53125 -107.34375 C 221.644531 -107.769531 222.84375 -106.015625 223.125 -102.078125 Z M 131.59375 -307.90625 C 123.445312 -296.945312 116.628906 -284.925781 111.140625 -271.84375 C 105.660156 -258.769531 100.53125 -245.90625 95.75 -233.25 C 90.6875 -219.75 86.113281 -206.179688 82.03125 -192.546875 C 77.957031 -178.910156 73.953125 -165.203125 70.015625 -151.421875 C 81.546875 -166.609375 92.65625 -182.144531 103.34375 -198.03125 C 114.03125 -213.914062 124.007812 -230.296875 133.28125 -247.171875 C 135.53125 -251.390625 137.847656 -255.609375 140.234375 -259.828125 C 142.628906 -264.046875 144.8125 -268.40625 146.78125 -272.90625 C 144.8125 -269.53125 142.984375 -266.296875 141.296875 -263.203125 C 139.609375 -260.109375 137.921875 -257.15625 136.234375 -254.34375 C 133.140625 -248.4375 129.90625 -242.597656 126.53125 -236.828125 C 123.164062 -231.066406 119.65625 -225.375 116 -219.75 L 106.71875 -205 C 105.59375 -203.875 104.328125 -202.394531 102.921875 -200.5625 C 101.515625 -198.738281 100.390625 -197.125 99.546875 -195.71875 C 100.953125 -198.8125 102.847656 -201.90625 105.234375 -205 C 107.628906 -208.09375 109.8125 -211.179688 111.78125 -214.265625 L 123.171875 -232.828125 C 127.097656 -239.578125 131.03125 -246.46875 134.96875 -253.5 C 138.90625 -260.53125 142.421875 -267.5625 145.515625 -274.59375 C 147.203125 -277.96875 149.3125 -282.460938 151.84375 -288.078125 C 154.375 -293.703125 156.269531 -299.328125 157.53125 -304.953125 C 158.800781 -310.578125 158.171875 -315.078125 155.640625 -318.453125 C 153.109375 -321.828125 150.222656 -322.878906 146.984375 -321.609375 C 143.753906 -320.347656 140.734375 -318.238281 137.921875 -315.28125 C 135.109375 -312.332031 133 -309.875 131.59375 -307.90625 Z M 89.421875 -90.6875 C 100.109375 -94.90625 110.160156 -100.953125 119.578125 -108.828125 C 128.992188 -116.703125 137.640625 -124.851562 145.515625 -133.28125 C 146.359375 -134.125 148.1875 -136.234375 151 -139.609375 C 153.8125 -142.984375 156.691406 -146.78125 159.640625 -151 C 162.597656 -155.21875 164.847656 -159.082031 166.390625 -162.59375 C 167.941406 -166.113281 167.875 -168.4375 166.1875 -169.5625 C 164.5 -170.96875 162.035156 -170.753906 158.796875 -168.921875 C 155.566406 -167.097656 152.265625 -164.640625 148.890625 -161.546875 C 145.515625 -158.453125 142.421875 -155.425781 139.609375 -152.46875 C 136.796875 -149.519531 134.96875 -147.484375 134.125 -146.359375 C 125.976562 -137.640625 118.25 -128.640625 110.9375 -119.359375 C 103.625 -110.085938 96.453125 -100.53125 89.421875 -90.6875 Z M 91.953125 -242.109375 C 86.609375 -229.453125 82.175781 -216.234375 78.65625 -202.453125 C 75.144531 -188.679688 71.984375 -175.1875 69.171875 -161.96875 C 69.171875 -161.6875 69.097656 -161.546875 68.953125 -161.546875 C 68.816406 -161.546875 68.75 -161.40625 68.75 -161.125 L 69.171875 -161.546875 L 68.328125 -158.171875 C 71.140625 -168.859375 74.160156 -179.332031 77.390625 -189.59375 C 80.628906 -199.863281 83.9375 -210.195312 87.3125 -220.59375 C 90.40625 -229.59375 93.285156 -238.453125 95.953125 -247.171875 C 98.628906 -255.890625 101.65625 -264.609375 105.03125 -273.328125 C 105.59375 -274.734375 107 -277.265625 109.25 -280.921875 C 111.5 -284.578125 113.1875 -287.8125 114.3125 -290.625 C 113.1875 -288.65625 111.847656 -286.546875 110.296875 -284.296875 C 108.753906 -282.046875 107.84375 -280.5 107.5625 -279.65625 C 104.75 -273.46875 102.078125 -267.207031 99.546875 -260.875 C 97.015625 -254.550781 94.484375 -248.296875 91.953125 -242.109375 Z M 61.578125 -243.375 C 61.578125 -243.375 61.578125 -243.300781 61.578125 -243.15625 C 61.578125 -243.019531 61.4375 -242.953125 61.15625 -242.953125 Z M 61.15625 -242.53125 L 61.15625 -242.953125 Z M 61.15625 -242.53125 "/></g></g><g transform="translate(719.812118, 432.905736)"><g/></g></g><g fill="#000000" fill-opacity="1"><g transform="translate(837.913334, 432.905736)"><g><path d="M 209.21875 -103.765625 C 209.78125 -103.765625 210.757812 -103.410156 212.15625 -102.703125 C 213.5625 -102.003906 213.5625 -101.515625 212.15625 -101.234375 C 212.71875 -101.515625 212.15625 -99.6875 210.46875 -95.75 C 208.789062 -91.8125 206.894531 -87.734375 204.78125 -83.515625 C 202.675781 -79.296875 201.34375 -76.765625 200.78125 -75.921875 C 197.6875 -70.859375 194.453125 -65.796875 191.078125 -60.734375 C 187.703125 -55.671875 184.328125 -50.75 180.953125 -45.96875 C 174.765625 -36.695312 168.644531 -27.066406 162.59375 -17.078125 C 156.550781 -7.097656 149.453125 1.828125 141.296875 9.703125 C 138.484375 12.515625 135.738281 14.625 133.0625 16.03125 C 130.394531 17.4375 127.097656 18 123.171875 17.71875 C 118.390625 17.4375 114.238281 16.3125 110.71875 14.34375 C 107.207031 12.375 103.90625 9.84375 100.8125 6.75 C 100.53125 6.1875 99.332031 4.988281 97.21875 3.15625 C 95.113281 1.332031 93.21875 -0.628906 91.53125 -2.734375 C 89.84375 -4.847656 89.140625 -6.328125 89.421875 -7.171875 L 91.953125 -3.375 C 90.828125 -5.0625 89.84375 -7.3125 89 -10.125 L 89 -8.4375 C 88.71875 -8.15625 88.15625 -9.207031 87.3125 -11.59375 C 86.46875 -13.988281 85.765625 -16.519531 85.203125 -19.1875 C 84.640625 -21.863281 84.359375 -23.484375 84.359375 -24.046875 C 84.078125 -27.140625 84.21875 -30.300781 84.78125 -33.53125 C 85.34375 -36.769531 85.90625 -39.929688 86.46875 -43.015625 C 87.875 -48.078125 89.347656 -53.140625 90.890625 -58.203125 C 92.441406 -63.265625 93.78125 -68.328125 94.90625 -73.390625 C 96.3125 -78.734375 98.28125 -83.9375 100.8125 -89 C 103.34375 -94.0625 105.875 -99.125 108.40625 -104.1875 C 108.6875 -104.75 109.597656 -106.503906 111.140625 -109.453125 C 112.691406 -112.410156 114.238281 -115.296875 115.78125 -118.109375 C 117.332031 -120.921875 118.390625 -122.328125 118.953125 -122.328125 C 118.953125 -122.046875 118.671875 -121.269531 118.109375 -120 C 117.546875 -118.738281 117.40625 -117.96875 117.6875 -117.6875 L 124.015625 -132.015625 L 122.75 -130.75 L 134.96875 -160.28125 C 127.101562 -154.09375 120.003906 -146.921875 113.671875 -138.765625 C 107.347656 -130.609375 101.09375 -122.738281 94.90625 -115.15625 C 92.09375 -111.5 89.207031 -107.703125 86.25 -103.765625 C 83.300781 -99.828125 80 -96.3125 76.34375 -93.21875 C 75.21875 -92.09375 74.300781 -91.597656 73.59375 -91.734375 C 72.894531 -91.878906 71.984375 -91.25 70.859375 -89.84375 C 70.015625 -88.71875 69.238281 -87.519531 68.53125 -86.25 C 67.832031 -84.988281 67.203125 -83.65625 66.640625 -82.25 C 61.859375 -74.375 56.582031 -66.707031 50.8125 -59.25 C 45.050781 -51.800781 39.644531 -44.144531 34.59375 -36.28125 L 27 -22.78125 C 26.71875 -21.65625 26.4375 -20.738281 26.15625 -20.03125 C 25.875 -19.332031 25.3125 -18.421875 24.46875 -17.296875 C 21.65625 -14.484375 18.207031 -13.425781 14.125 -14.125 C 10.050781 -14.832031 6.890625 -16.59375 4.640625 -19.40625 C 2.671875 -21.65625 1.472656 -24.113281 1.046875 -26.78125 C 0.628906 -29.457031 0.421875 -32.0625 0.421875 -34.59375 C -0.421875 -43.863281 -0.0703125 -53.347656 1.46875 -63.046875 C 3.019531 -72.753906 4.640625 -82.109375 6.328125 -91.109375 C 9.984375 -111.078125 14.269531 -130.898438 19.1875 -150.578125 C 24.113281 -170.265625 29.8125 -189.671875 36.28125 -208.796875 C 41.894531 -225.941406 48.78125 -242.390625 56.9375 -258.140625 C 65.09375 -273.890625 73.25 -289.773438 81.40625 -305.796875 C 81.40625 -306.078125 81.828125 -307.765625 82.671875 -310.859375 C 83.515625 -313.953125 84.5 -315.78125 85.625 -316.34375 C 85.34375 -316.0625 84.78125 -314.65625 83.9375 -312.125 C 83.09375 -309.59375 82.671875 -308.328125 82.671875 -308.328125 L 87.734375 -318.03125 C 87.734375 -318.03125 87.660156 -318.03125 87.515625 -318.03125 C 87.378906 -318.03125 87.171875 -318.171875 86.890625 -318.453125 C 86.890625 -322.390625 88.644531 -326.816406 92.15625 -331.734375 C 95.675781 -336.660156 98.421875 -340.671875 100.390625 -343.765625 C 103.484375 -348.546875 106.578125 -353.328125 109.671875 -358.109375 C 112.765625 -362.890625 116 -367.53125 119.375 -372.03125 C 125.269531 -380.175781 131.3125 -388.46875 137.5 -396.90625 C 143.6875 -405.34375 150.71875 -412.65625 158.59375 -418.84375 C 162.8125 -421.9375 167.453125 -424.75 172.515625 -427.28125 C 177.578125 -429.8125 182.78125 -430.796875 188.125 -430.234375 C 194.03125 -430.234375 198.953125 -428.265625 202.890625 -424.328125 C 203.453125 -423.765625 204.4375 -422.285156 205.84375 -419.890625 C 207.25 -417.503906 208.441406 -415.046875 209.421875 -412.515625 C 210.398438 -409.984375 210.472656 -408.4375 209.640625 -407.875 C 209.640625 -407.875 209.285156 -408.925781 208.578125 -411.03125 C 207.878906 -413.144531 207.390625 -414.203125 207.109375 -414.203125 C 208.515625 -410.828125 209.359375 -407.3125 209.640625 -403.65625 C 209.921875 -400 209.921875 -396.484375 209.640625 -393.109375 C 210.203125 -393.953125 210.484375 -394.375 210.484375 -394.375 C 211.035156 -394.375 210.960938 -392.40625 210.265625 -388.46875 C 209.566406 -384.53125 208.65625 -379.890625 207.53125 -374.546875 C 206.40625 -369.210938 205.347656 -364.363281 204.359375 -360 C 203.378906 -355.644531 202.75 -353.046875 202.46875 -352.203125 C 200.5 -344.890625 198.035156 -337.644531 195.078125 -330.46875 C 192.128906 -323.300781 189.109375 -316.203125 186.015625 -309.171875 C 178.984375 -294.554688 171.035156 -279.65625 162.171875 -264.46875 C 153.316406 -249.28125 143.546875 -235.359375 132.859375 -222.703125 C 130.890625 -220.453125 128.640625 -218.410156 126.109375 -216.578125 C 123.585938 -214.753906 121.34375 -212.859375 119.375 -210.890625 C 117.40625 -208.648438 115.578125 -206.125 113.890625 -203.3125 C 112.203125 -200.5 110.234375 -197.828125 107.984375 -195.296875 C 102.640625 -189.109375 97.015625 -183.0625 91.109375 -177.15625 C 85.203125 -171.25 79.15625 -165.484375 72.96875 -159.859375 C 69.3125 -156.484375 66.640625 -153.53125 64.953125 -151 C 63.265625 -148.46875 61.578125 -144.8125 59.890625 -140.03125 C 58.484375 -135.53125 57.078125 -131.101562 55.671875 -126.75 C 54.265625 -122.394531 52.859375 -118.109375 51.453125 -113.890625 C 48.640625 -105.453125 45.96875 -97.015625 43.4375 -88.578125 C 40.914062 -80.140625 38.53125 -71.5625 36.28125 -62.84375 C 39.9375 -68.46875 43.660156 -73.878906 47.453125 -79.078125 C 51.242188 -84.285156 55.109375 -89.5625 59.046875 -94.90625 C 56.234375 -91.8125 53.984375 -89.207031 52.296875 -87.09375 C 50.609375 -84.988281 49.765625 -83.9375 49.765625 -83.9375 C 49.484375 -83.9375 51.097656 -86.1875 54.609375 -90.6875 C 58.128906 -95.1875 62.628906 -100.738281 68.109375 -107.34375 C 73.597656 -113.957031 79.15625 -120.707031 84.78125 -127.59375 C 90.40625 -134.476562 95.328125 -140.519531 99.546875 -145.71875 C 103.765625 -150.925781 106.4375 -154.09375 107.5625 -155.21875 C 110.65625 -158.59375 114.378906 -162.53125 118.734375 -167.03125 C 123.097656 -171.53125 127.738281 -175.394531 132.65625 -178.625 C 137.570312 -181.863281 142.5625 -183.484375 147.625 -183.484375 C 152.6875 -183.484375 157.46875 -180.671875 161.96875 -175.046875 C 167.3125 -168.578125 168.785156 -161.6875 166.390625 -154.375 C 164.003906 -147.0625 161.265625 -140.171875 158.171875 -133.703125 C 152.828125 -122.179688 147.128906 -109.953125 141.078125 -97.015625 C 135.035156 -84.078125 130.328125 -71.703125 126.953125 -59.890625 C 127.234375 -60.171875 127.796875 -61.363281 128.640625 -63.46875 C 129.484375 -65.582031 130.1875 -66.359375 130.75 -65.796875 C 131.59375 -64.953125 131.519531 -62.628906 130.53125 -58.828125 C 129.550781 -55.035156 128.429688 -51.242188 127.171875 -47.453125 C 125.910156 -43.660156 125.140625 -41.0625 124.859375 -39.65625 C 124.859375 -38.8125 124.578125 -36.984375 124.015625 -34.171875 C 123.453125 -31.359375 123.171875 -28.6875 123.171875 -26.15625 C 123.171875 -23.625 123.734375 -21.9375 124.859375 -21.09375 C 126.816406 -19.96875 128.988281 -20.109375 131.375 -21.515625 C 133.769531 -22.921875 136.160156 -24.75 138.546875 -27 C 140.941406 -29.25 142.703125 -30.9375 143.828125 -32.0625 C 151.421875 -39.363281 158.734375 -47.09375 165.765625 -55.25 C 172.796875 -63.40625 179.828125 -71.421875 186.859375 -79.296875 C 189.390625 -82.390625 191.988281 -85.625 194.65625 -89 C 197.332031 -92.375 200.078125 -95.46875 202.890625 -98.28125 C 203.453125 -98.84375 204.363281 -99.894531 205.625 -101.4375 C 206.894531 -102.988281 208.09375 -103.765625 209.21875 -103.765625 Z M 172.515625 -387.625 C 172.515625 -387.34375 172.441406 -387.203125 172.296875 -387.203125 C 172.160156 -387.203125 172.09375 -387.203125 172.09375 -387.203125 C 164.5 -375.117188 157.328125 -362.675781 150.578125 -349.875 C 143.828125 -337.082031 137.21875 -324.359375 130.75 -311.703125 C 124.851562 -300.179688 118.8125 -288.441406 112.625 -276.484375 C 106.4375 -264.535156 100.8125 -252.796875 95.75 -241.265625 C 96.3125 -242.390625 96.941406 -243.375 97.640625 -244.21875 C 98.347656 -245.0625 98.84375 -245.625 99.125 -245.90625 C 99.125 -245.90625 98.347656 -243.796875 96.796875 -239.578125 C 95.253906 -235.359375 93.707031 -231 92.15625 -226.5 C 90.613281 -222 89.5625 -219.328125 89 -218.484375 L 76.34375 -185.171875 C 91.53125 -201.203125 105.660156 -218.144531 118.734375 -236 C 131.804688 -253.851562 143.6875 -272.203125 154.375 -291.046875 C 150.15625 -284.015625 145.863281 -277.125 141.5 -270.375 C 137.144531 -263.625 132.578125 -257.015625 127.796875 -250.546875 L 110.9375 -226.921875 L 103.34375 -219.328125 L 106.71875 -223.125 C 108.96875 -225.65625 111.003906 -228.1875 112.828125 -230.71875 C 114.660156 -233.25 116.5625 -235.78125 118.53125 -238.3125 C 122.1875 -243.375 125.769531 -248.503906 129.28125 -253.703125 C 132.789062 -258.910156 136.234375 -264.1875 139.609375 -269.53125 C 146.640625 -280.5 153.25 -291.601562 159.4375 -302.84375 C 165.625 -314.09375 171.25 -325.625 176.3125 -337.4375 C 178.84375 -343.625 181.300781 -349.878906 183.6875 -356.203125 C 186.082031 -362.535156 188.125 -368.9375 189.8125 -375.40625 C 190.375 -377.65625 191.144531 -380.742188 192.125 -384.671875 C 193.113281 -388.609375 193.675781 -392.472656 193.8125 -396.265625 C 193.957031 -400.066406 193.046875 -402.8125 191.078125 -404.5 C 189.109375 -406.1875 187 -406.046875 184.75 -404.078125 C 182.5 -402.109375 180.316406 -399.578125 178.203125 -396.484375 C 176.097656 -393.390625 174.484375 -391 173.359375 -389.3125 C 173.640625 -389.59375 173.5 -389.171875 172.9375 -388.046875 L 172.9375 -388.46875 C 172.9375 -388.1875 172.863281 -388.046875 172.71875 -388.046875 C 172.582031 -388.046875 172.515625 -388.046875 172.515625 -388.046875 Z M 66.640625 -180.953125 L 66.21875 -179.6875 C 65.9375 -178.5625 65.582031 -176.800781 65.15625 -174.40625 C 64.738281 -172.019531 64.671875 -170.828125 64.953125 -170.828125 C 64.671875 -170.828125 65.300781 -173.144531 66.84375 -177.78125 C 68.394531 -182.425781 70.296875 -187.769531 72.546875 -193.8125 C 74.796875 -199.863281 76.90625 -205.414062 78.875 -210.46875 C 80.84375 -215.53125 81.96875 -218.625 82.25 -219.75 C 83.9375 -224.25 85.90625 -228.535156 88.15625 -232.609375 C 90.40625 -236.691406 92.234375 -240.984375 93.640625 -245.484375 C 95.328125 -250.265625 97.222656 -254.832031 99.328125 -259.1875 C 101.441406 -263.550781 103.625 -267.984375 105.875 -272.484375 C 107 -274.734375 109.671875 -280.003906 113.890625 -288.296875 C 118.109375 -296.585938 122.882812 -306.078125 128.21875 -316.765625 C 133.5625 -327.453125 138.765625 -338 143.828125 -348.40625 C 148.890625 -358.8125 152.96875 -367.523438 156.0625 -374.546875 C 159.15625 -381.578125 160.421875 -385.234375 159.859375 -385.515625 C 159.578125 -385.515625 158.03125 -382.914062 155.21875 -377.71875 C 152.40625 -372.519531 148.890625 -365.984375 144.671875 -358.109375 C 140.453125 -350.234375 136.234375 -342.21875 132.015625 -334.0625 C 127.804688 -325.90625 124.082031 -318.660156 120.84375 -312.328125 C 117.613281 -306.003906 115.578125 -302 114.734375 -300.3125 C 110.515625 -291.601562 105.941406 -282.890625 101.015625 -274.171875 C 96.097656 -265.453125 91.953125 -256.453125 88.578125 -247.171875 C 84.921875 -236.203125 80.84375 -225.304688 76.34375 -214.484375 C 71.84375 -203.660156 68.609375 -192.484375 66.640625 -180.953125 Z M 95.75 -210.484375 C 96.875 -212.160156 97.859375 -213.421875 98.703125 -214.265625 C 98.140625 -213.703125 97.644531 -213.066406 97.21875 -212.359375 C 96.800781 -211.660156 96.3125 -211.035156 95.75 -210.484375 Z M 172.515625 -387.625 L 172.9375 -388.046875 L 172.515625 -388.046875 Z M 66.640625 -180.53125 C 66.640625 -180.25 66.566406 -180.109375 66.421875 -180.109375 C 66.285156 -180.109375 66.21875 -179.96875 66.21875 -179.6875 C 66.21875 -179.6875 66.285156 -179.753906 66.421875 -179.890625 C 66.566406 -180.035156 66.640625 -180.25 66.640625 -180.53125 Z M 66.640625 -180.53125 "/></g></g></g><g fill="#000000" fill-opacity="1"><g transform="translate(1019.728993, 432.905736)"><g/></g></g></g></g></g></g></g></svg>